<?xml version="1.0" encoding="utf-8"?>
<!-- Generator: Adobe Illustrator 17.0.0, SVG Export Plug-In . SVG Version: 6.00 Build 0)  -->
<!DOCTYPE svg PUBLIC "-//W3C//DTD SVG 1.1//EN" "http://www.w3.org/Graphics/SVG/1.1/DTD/svg11.dtd">
<svg version="1.1" id="Capa_1" xmlns="http://www.w3.org/2000/svg" xmlns:xlink="http://www.w3.org/1999/xlink" x="0px" y="0px"
	 width="64px" height="64px" viewBox="0 0 64 64" enable-background="new 0 0 64 64" xml:space="preserve">
<path d="M13.747,11.977v37.587h37.586c2.472,0,4.476-2.004,4.476-4.476V7.502H18.222C15.75,7.502,13.747,9.506,13.747,11.977z
	 M34.777,14.782c1.731,0,3.136,1.403,3.136,3.137c0,1.733-1.404,3.136-3.136,3.136c-1.732,0-3.136-1.403-3.136-3.136
	C31.642,16.185,33.045,14.782,34.777,14.782z M29.891,25.865c0-1.069,0.958-1.938,2.138-1.938c0.184,0,0.349,0,0.519,0h1.619h2.84
	v13.73h5.189v1.938c0,1.069-1.021,1.936-2.281,1.936h-2.909h-0.749h-3.71V27.803h-2.657V25.865z"/>
</svg>
